<svg width="68" height="69" viewBox="0 0 68 69" fill="none" xmlns="http://www.w3.org/2000/svg">
<g id="New logo 2">
<g id="Group">
<g id="Clip path group">
<mask id="mask0_526_453" style="mask-type:luminance" maskUnits="userSpaceOnUse" x="19" y="27" width="13" height="15">
<g id="SVGID_2_">
<path id="Vector" d="M24.0205 27.3996L19.9216 31.4985C19.7831 31.637 19.7516 31.8511 19.8397 32.0274C20.1986 32.7011 20.9101 34.5018 19.8146 36.737C19.7327 36.907 19.7705 37.1148 19.9027 37.247L24.0771 41.434C24.2534 41.6103 24.5368 41.6103 24.7131 41.434L31.3242 34.7096C31.4942 34.5333 31.4942 34.25 31.3242 34.08L24.6501 27.4059C24.562 27.3177 24.4486 27.2737 24.3353 27.2737C24.222 27.2674 24.1086 27.3114 24.0205 27.3996Z" fill="white"/>
</g>
</mask>
<g mask="url(#mask0_526_453)">
<path id="Vector_2" d="M31.5003 27.2673H19.7388V41.6103H31.5003V27.2673Z" fill="url(#paint0_linear_526_453)"/>
</g>
</g>
</g>
<g id="Group_2">
<g id="Clip path group_2">
<mask id="mask1_526_453" style="mask-type:luminance" maskUnits="userSpaceOnUse" x="36" y="27" width="13" height="15">
<g id="SVGID_5_">
<path id="Vector_3" d="M43.2052 27.3995L36.5311 34.0736C36.3549 34.2499 36.3549 34.5269 36.5311 34.7032L43.1423 41.4277C43.3186 41.6039 43.6019 41.6039 43.7782 41.4277L47.9526 37.2406C48.0849 37.1084 48.1226 36.9006 48.0408 36.7306C46.9452 34.4954 47.663 32.6884 48.0156 32.021C48.11 31.8447 48.0786 31.6306 47.9337 31.4921L43.8349 27.3932C43.7467 27.3051 43.6334 27.261 43.52 27.261C43.4067 27.2673 43.2871 27.3114 43.2052 27.3995Z" fill="white"/>
</g>
</mask>
<g mask="url(#mask1_526_453)">
<path id="Vector_4" d="M48.1165 27.2673H36.355V41.6103H48.1165V27.2673Z" fill="url(#paint1_linear_526_453)"/>
</g>
</g>
</g>
<g id="Group_3">
<g id="Clip path group_3">
<mask id="mask2_526_453" style="mask-type:luminance" maskUnits="userSpaceOnUse" x="26" y="20" width="16" height="13">
<g id="SVGID_8_">
<path id="Vector_5" d="M36.3109 20.3728C34.0758 21.4684 32.2687 20.7506 31.6013 20.398C31.425 20.3036 31.2109 20.3351 31.0724 20.4799L26.9735 24.5788C26.7972 24.7551 26.7972 25.0384 26.9735 25.2147L33.6476 31.8888C33.8239 32.0651 34.1009 32.0651 34.2772 31.8888L41.0017 25.2777C41.178 25.1014 41.178 24.818 41.0017 24.6417L36.8146 20.4673C36.7265 20.3791 36.6132 20.3351 36.4998 20.3351C36.4369 20.3288 36.3676 20.3414 36.3109 20.3728Z" fill="white"/>
</g>
</mask>
<g mask="url(#mask2_526_453)">
<path id="Vector_6" d="M41.1844 20.3036H26.7974V32.0525H41.1844V20.3036Z" fill="url(#paint2_linear_526_453)"/>
</g>
</g>
</g>
<g id="Group_4">
<g id="Clip path group_4">
<mask id="mask3_526_453" style="mask-type:luminance" maskUnits="userSpaceOnUse" x="26" y="36" width="16" height="13">
<g id="SVGID_11_">
<path id="Vector_7" d="M33.6476 36.9573L26.9735 43.6314C26.7972 43.8077 26.7972 44.091 26.9735 44.2673L31.0724 48.3662C31.2109 48.5047 31.425 48.5362 31.6013 48.4481C32.275 48.0892 34.0758 47.3777 36.3109 48.4732C36.4809 48.5551 36.6887 48.5173 36.8209 48.3851L41.008 44.2106C41.1843 44.0344 41.1843 43.751 41.008 43.5747L34.2835 36.9636C34.1954 36.8755 34.082 36.8377 33.9687 36.8377C33.8491 36.8251 33.7358 36.8692 33.6476 36.9573Z" fill="white"/>
</g>
</mask>
<g mask="url(#mask3_526_453)">
<path id="Vector_8" d="M41.1844 36.8251H26.7974V48.5425H41.1844V36.8251Z" fill="url(#paint3_linear_526_453)"/>
</g>
</g>
</g>
<g id="Group_5">
<g id="Clip path group_5">
<mask id="mask4_526_453" style="mask-type:luminance" maskUnits="userSpaceOnUse" x="22" y="45" width="23" height="19">
<g id="SVGID_14_">
<path id="Vector_9" d="M22.9814 52.144C22.9814 58.2136 27.8989 63.1311 33.9685 63.1311C40.0381 63.1311 44.9555 58.2136 44.9555 52.144C44.9555 49.827 44.2377 47.6736 43.01 45.8981L43.0037 45.8918C42.7581 45.5455 42.374 45.8162 42.374 45.8162L38.2814 49.9151C38.0926 50.1733 38.0296 50.6833 38.0296 50.6833C38.1933 51.1366 38.2814 51.634 38.2814 52.144C38.2814 54.524 36.3485 56.457 33.9685 56.457C31.5885 56.457 29.6555 54.524 29.6555 52.144C29.6555 51.697 29.7248 51.2625 29.8507 50.8596C29.857 50.847 29.857 50.8344 29.8633 50.8281C29.9703 50.4629 29.7814 50.104 29.7814 50.104L25.5 45.8225C25.4307 45.7092 25.2796 45.6588 25.1159 45.6462C23.7748 47.4596 22.9814 49.7074 22.9814 52.144Z" fill="white"/>
</g>
</mask>
<g mask="url(#mask4_526_453)">
<path id="Vector_10" d="M44.9555 45.5455H22.9814V63.1311H44.9555V45.5455Z" fill="url(#paint4_linear_526_453)"/>
</g>
</g>
</g>
<g id="Group_6">
<g id="Clip path group_6">
<mask id="mask5_526_453" style="mask-type:luminance" maskUnits="userSpaceOnUse" x="22" y="5" width="23" height="19">
<g id="SVGID_17_">
<path id="Vector_11" d="M22.9814 16.7084C22.9814 19.1451 23.7748 21.3928 25.1159 23.2125C25.2796 23.1999 25.437 23.1495 25.5 23.0362L29.7814 18.7547C29.7814 18.7547 29.9703 18.3895 29.8633 18.0306C29.857 18.018 29.857 18.0054 29.8507 17.9991C29.7248 17.5899 29.6555 17.1617 29.6555 16.7147C29.6555 14.3347 31.5885 12.4017 33.9685 12.4017C36.3485 12.4017 38.2814 14.3347 38.2814 16.7147C38.2814 17.2247 38.1933 17.7221 38.0296 18.1754C38.0296 18.1754 38.0926 18.6854 38.2814 18.9436L42.374 23.0425C42.374 23.0425 42.7581 23.3132 43.0037 22.9669C43.0037 22.9669 43.0037 22.9606 43.01 22.9606C44.2377 21.1851 44.9555 19.038 44.9555 16.7147C44.9555 10.6451 40.0381 5.72766 33.9685 5.72766C27.8989 5.72766 22.9814 10.6388 22.9814 16.7084Z" fill="white"/>
</g>
</mask>
<g mask="url(#mask5_526_453)">
<path id="Vector_12" d="M44.9555 5.72107H22.9814V23.3066H44.9555V5.72107Z" fill="url(#paint5_linear_526_453)"/>
</g>
</g>
</g>
<g id="Group_7">
<g id="Clip path group_7">
<mask id="mask6_526_453" style="mask-type:luminance" maskUnits="userSpaceOnUse" x="5" y="23" width="18" height="23">
<g id="SVGID_20_">
<path id="Vector_13" d="M16.1121 23.414C10.0425 23.4896 5.18801 28.4699 5.26357 34.5333C5.33912 40.6029 10.3195 45.4573 16.3828 45.3818C18.6999 45.3503 20.8469 44.6073 22.6036 43.3607L22.6099 43.3544C22.9499 43.1025 22.6791 42.7248 22.6791 42.7248L18.5299 38.6825C18.2717 38.4999 17.7554 38.437 17.7554 38.437C17.3021 38.607 16.811 38.7014 16.301 38.7077C13.921 38.7392 11.9628 36.8314 11.9376 34.4451C11.9062 32.0651 13.8139 30.107 16.1939 30.0818C16.641 30.0755 17.0754 30.1385 17.4847 30.2581C17.4973 30.2644 17.5099 30.2644 17.5225 30.2707C17.8876 30.3777 18.2465 30.1825 18.2465 30.1825L22.4776 25.8507C22.591 25.7814 22.635 25.6303 22.6476 25.4603C20.8469 24.1696 18.6369 23.4077 16.2569 23.4077C16.2065 23.414 16.1625 23.414 16.1121 23.414Z" fill="white"/>
</g>
</mask>
<g mask="url(#mask6_526_453)">
<path id="Vector_14" d="M22.9561 23.4141H5.18799V45.4637H22.9561V23.4141Z" fill="url(#paint6_linear_526_453)"/>
</g>
</g>
</g>
<g id="Group_8">
<g id="Clip path group_8">
<mask id="mask7_526_453" style="mask-type:luminance" maskUnits="userSpaceOnUse" x="45" y="23" width="18" height="23">
<g id="SVGID_23_">
<path id="Vector_15" d="M45.3205 25.4666C45.3331 25.6303 45.3772 25.7877 45.4905 25.857L49.7216 30.1888C49.7216 30.1888 50.0805 30.384 50.4457 30.277C50.4583 30.2707 50.4709 30.2707 50.4835 30.2644C50.8927 30.1448 51.3272 30.0818 51.7742 30.0881C54.1542 30.1196 56.062 32.0714 56.0368 34.4514C56.0053 36.8314 54.0535 38.7392 51.6735 38.714C51.1635 38.7077 50.6724 38.6133 50.219 38.4433C50.219 38.4433 49.7027 38.5 49.4446 38.6888L45.2953 42.7311C45.2953 42.7311 45.0183 43.1088 45.3646 43.3607L45.3709 43.367C47.1276 44.6137 49.2746 45.3629 51.5916 45.3881C57.6613 45.4637 62.6416 40.6029 62.7109 34.5396C62.7865 28.47 57.9257 23.4896 51.8624 23.4203C51.8183 23.4203 51.7679 23.4203 51.7239 23.4203C49.3313 23.414 47.1213 24.1696 45.3205 25.4666Z" fill="white"/>
</g>
</mask>
<g mask="url(#mask7_526_453)">
<path id="Vector_16" d="M62.7804 23.4141H45.0122V45.4637H62.7804V23.4141Z" fill="url(#paint7_linear_526_453)"/>
</g>
</g>
</g>
</g>
<defs>
<linearGradient id="paint0_linear_526_453" x1="19.7755" y1="34.4387" x2="31.456" y2="34.4387" gradientUnits="userSpaceOnUse">
<stop stop-color="#DBA926"/>
<stop offset="1" stop-color="#DFBA5A"/>
</linearGradient>
<linearGradient id="paint1_linear_526_453" x1="36.398" y1="34.4387" x2="48.0785" y2="34.4387" gradientUnits="userSpaceOnUse">
<stop stop-color="#DBA926"/>
<stop offset="1" stop-color="#DFBA5A"/>
</linearGradient>
<linearGradient id="paint2_linear_526_453" x1="26.8423" y1="26.1772" x2="41.1382" y2="26.1772" gradientUnits="userSpaceOnUse">
<stop stop-color="#DBA926"/>
<stop offset="1" stop-color="#DFBA5A"/>
</linearGradient>
<linearGradient id="paint3_linear_526_453" x1="26.8423" y1="42.6835" x2="41.1382" y2="42.6835" gradientUnits="userSpaceOnUse">
<stop stop-color="#DBA926"/>
<stop offset="1" stop-color="#DFBA5A"/>
</linearGradient>
<linearGradient id="paint4_linear_526_453" x1="22.9814" y1="54.339" x2="44.9555" y2="54.339" gradientUnits="userSpaceOnUse">
<stop stop-color="#DBA926"/>
<stop offset="1" stop-color="#DFBA5A"/>
</linearGradient>
<linearGradient id="paint5_linear_526_453" x1="22.9814" y1="14.5124" x2="44.9555" y2="14.5124" gradientUnits="userSpaceOnUse">
<stop stop-color="#DBA926"/>
<stop offset="1" stop-color="#DFBA5A"/>
</linearGradient>
<linearGradient id="paint6_linear_526_453" x1="5.26304" y1="34.4372" x2="22.7854" y2="34.4372" gradientUnits="userSpaceOnUse">
<stop stop-color="#DBA926"/>
<stop offset="1" stop-color="#DFBA5A"/>
</linearGradient>
<linearGradient id="paint7_linear_526_453" x1="45.1817" y1="34.4372" x2="62.704" y2="34.4372" gradientUnits="userSpaceOnUse">
<stop stop-color="#DBA926"/>
<stop offset="1" stop-color="#DFBA5A"/>
</linearGradient>
</defs>
</svg>
