<svg xmlns="http://www.w3.org/2000/svg" width="510" height="511" fill="none" viewBox="0 0 510 511" id="menu"><path fill="#000" fill-rule="evenodd" d="M238.322 358.531C228.559 348.767 228.559 332.938 238.322 323.175 248.085 313.412 263.915 313.412 273.678 323.175 283.441 332.938 283.441 348.767 273.678 358.531 263.915 368.294 248.085 368.294 238.322 358.531zM284.284 369.137C268.663 384.758 243.337 384.758 227.716 369.137 212.095 353.516 212.095 328.19 227.716 312.569 243.337 296.948 268.663 296.948 284.284 312.569 299.905 328.19 299.905 353.516 284.284 369.137zM153.471 273.677C143.708 263.914 143.708 248.085 153.471 238.322 163.234 228.559 179.063 228.559 188.826 238.322 198.589 248.085 198.589 263.914 188.826 273.677 179.063 283.441 163.234 283.441 153.471 273.677zM199.433 284.284C183.812 299.905 158.485 299.905 142.864 284.284 127.243 268.663 127.243 243.337 142.864 227.716 158.485 212.095 183.812 212.095 199.433 227.716 215.054 243.337 215.054 268.663 199.433 284.284zM323.174 273.677C313.411 263.914 313.411 248.085 323.174 238.322 332.937 228.559 348.766 228.559 358.529 238.322 368.292 248.085 368.292 263.914 358.529 273.677 348.766 283.441 332.937 283.441 323.174 273.677zM369.136 284.284C353.515 299.905 328.188 299.905 312.567 284.284 296.946 268.663 296.946 243.337 312.567 227.716 328.188 212.095 353.515 212.095 369.136 227.716 384.757 243.337 384.757 268.663 369.136 284.284zM238.322 188.824C228.559 179.061 228.559 163.232 238.322 153.469 248.085 143.706 263.915 143.706 273.678 153.469 283.441 163.232 283.441 179.061 273.678 188.824 263.915 198.588 248.085 198.588 238.322 188.824zM284.284 199.431C268.663 215.052 243.337 215.052 227.716 199.431 212.095 183.81 212.095 158.483 227.716 142.863 243.337 127.242 268.663 127.242 284.284 142.863 299.905 158.483 299.905 183.81 284.284 199.431z" clip-rule="evenodd"></path></svg>